# xmcd
#
# Track frame offsets:
#	150
#	28226
#	55982
#	70614
#	106728
#	122933
#	141850
#	187430
#	214180
#	253872
#	268947
#	298136
#	322144
#	355881
#
# Disc length: 5088 seconds
#
# Revision: 1
# Processed by: cddbd v1.5PL3 Copyright (c) Steve Scherf et al.
# Submitted via: audiograbber 1.82.01
#
DISCID=f413de0e
DTITLE=Eric Clapton - Live In Hyde Park
DYEAR=1996
DGENRE=Blues
TTITLE0=Layla
TTITLE1=Badge
TTITLE2=Hoochie Coochie Man
TTITLE3=I Shot The Sheriff
TTITLE4=It Hurts Me Too
TTITLE5=Wonderful Tonight
TTITLE6=Five Long Years
TTITLE7=Tearin´ Us Apart
TTITLE8=Old Love
TTITLE9=I´m Tore Down
TTITLE10=Have You Ever Loved A Woman
TTITLE11=White Room
TTITLE12=Every Day I Have The Blues
TTITLE13=Holy Mother
EXTD=
EXTT0=
EXTT1=
EXTT2=
EXTT3=
EXTT4=
EXTT5=
EXTT6=
EXTT7=
EXTT8=
EXTT9=
EXTT10=
EXTT11=
EXTT12=
EXTT13=
PLAYORDER=
